<svg width="26" height="17" viewBox="0 0 26 17" fill="none" xmlns="http://www.w3.org/2000/svg">
    <rect x="0.137726" y="0.4375" width="25.6886" height="16" fill="#848895"/>
    <g clip-path="url(#clip0_119_382)">
        <path d="M10.4966 2.8833C9.98822 2.8833 8.45564 3.50503 8.18068 3.62928C7.90572 3.75353 7.60053 4.1414 7.25423 4.78155C6.90746 5.4217 6.6292 6.17004 6.17708 7.27082C5.72543 8.37159 5.62007 10.4938 5.63519 11.1415C5.65031 11.7892 5.72448 12.2952 6.38825 12.6783C7.05156 13.061 7.63832 13.4616 8.2558 13.7026C8.87374 13.9435 9.29516 14.1169 9.58145 13.8759C9.86775 13.635 10.0563 13.2131 10.0563 13.2131C10.0563 13.2131 10.3274 12.8366 9.81531 12.6108C9.30319 12.3845 9.04713 12.2262 9.06933 11.9928C9.09201 11.7594 9.12933 11.6314 9.25736 11.6616C9.38539 11.6919 9.68728 12.2338 10.8471 12.4823C12.0069 12.7308 13.1375 12.6934 13.1375 12.6934C13.1375 12.6934 14.2685 12.7312 15.4283 12.4823C16.5882 12.2338 16.8896 11.6919 17.0176 11.6616C17.1456 11.6314 17.183 11.7594 17.2056 11.9923C17.2283 12.2262 16.9722 12.3845 16.4601 12.6108C15.948 12.8366 16.2192 13.2131 16.2192 13.2131C16.2192 13.2131 16.4077 13.6345 16.694 13.8759C16.9798 14.1169 17.4017 13.9435 18.0192 13.7026C18.6366 13.4616 19.2239 13.0615 19.8872 12.6783C20.551 12.2952 20.6251 11.7892 20.6402 11.1415C20.6554 10.4942 20.55 8.37159 20.0979 7.27082C19.6462 6.17004 19.3675 5.4217 19.0207 4.78155C18.6749 4.1414 18.3692 3.75353 18.0948 3.62881C17.8198 3.50503 16.2867 2.8833 15.7784 2.8833C15.2701 2.8833 15.1198 3.23763 15.1198 3.23763L14.9427 3.62928C14.9427 3.62928 13.7521 3.40298 13.1455 3.40251C12.5389 3.40251 11.3328 3.62928 11.3328 3.62928L11.1556 3.23716C11.1556 3.23716 11.0054 2.8833 10.4966 2.8833ZM10.5518 7.5831H10.5707C11.312 7.5831 11.9125 8.23175 11.9125 9.03159C11.9125 9.83189 11.312 10.4801 10.5707 10.4801C9.82948 10.4801 9.22901 9.83189 9.22901 9.03159C9.22854 8.23931 9.81814 7.59396 10.5518 7.5831ZM15.7047 7.5831H15.7236C16.4573 7.59396 17.0464 8.23978 17.0464 9.03159C17.0464 9.83189 16.446 10.4801 15.7047 10.4801C14.963 10.4801 14.363 9.83189 14.363 9.03159C14.363 8.23175 14.963 7.5831 15.7047 7.5831Z" fill="black"/>
    </g>
    <defs>
        <clipPath id="clip0_119_382">
            <rect width="16" height="16" fill="white" transform="translate(5.13773 0.4375)"/>
        </clipPath>
    </defs>
</svg>
