<svg width="24" height="24" viewBox="0 0 24 24" fill="none" xmlns="http://www.w3.org/2000/svg">
    <path fill-rule="evenodd" clip-rule="evenodd" d="M17.293 8.293C17.3853 8.19749 17.4956 8.12131 17.6176 8.0689C17.7396 8.01649 17.8708 7.9889 18.0036 7.98775C18.1364 7.9866 18.2681 8.0119 18.391 8.06218C18.5139 8.11246 18.6255 8.18671 18.7194 8.28061C18.8133 8.3745 18.8876 8.48615 18.9378 8.60905C18.9881 8.73194 19.0134 8.86362 19.0123 8.9964C19.0111 9.12918 18.9835 9.2604 18.9311 9.38241C18.8787 9.50441 18.8025 9.61475 18.707 9.707L12.707 15.707C12.5248 15.8893 12.2792 15.9941 12.0215 15.9997C11.7639 16.0053 11.514 15.9112 11.324 15.737L5.32401 10.237C5.12855 10.0577 5.01231 9.80812 5.00087 9.54313C4.99521 9.41193 5.01544 9.28089 5.06042 9.1575C5.1054 9.03411 5.17424 8.92079 5.26301 8.824C5.35178 8.72722 5.45875 8.64887 5.57781 8.59342C5.69686 8.53798 5.82567 8.50652 5.95688 8.50086C6.22187 8.48942 6.48055 8.58371 6.67601 8.763L11.97 13.616L17.293 8.293Z" fill="#848895"/>
</svg>
