<svg width="27" height="17" viewBox="0 0 27 17" fill="none" xmlns="http://www.w3.org/2000/svg">
    <g clip-path="url(#clip0_119_390)">
        <rect x="0.706604" y="0.4375" width="25.6886" height="16" rx="8" fill="white"/>
        <rect x="0.706604" y="0.4375" width="25.6886" height="16" fill="#848895"/>
        <path d="M20.6761 8.46454C20.6756 8.03883 20.5063 7.63069 20.2053 7.32967C19.9043 7.02865 19.4961 6.85934 19.0704 6.85889C18.6806 6.85843 18.3041 7.0009 18.0122 7.25932C16.9503 6.57981 15.5335 6.15173 13.9707 6.10545L14.9271 2.83491L17.2749 3.27117C17.2749 3.29036 17.2709 3.30842 17.272 3.32761C17.2861 3.59624 17.406 3.84835 17.6057 4.02864C17.8053 4.20893 18.0683 4.30267 18.337 4.2893C18.6056 4.27521 18.8576 4.15519 19.0379 3.95555C19.2181 3.75591 19.3118 3.49295 19.2984 3.22433C19.2844 2.95569 19.1644 2.70358 18.9648 2.52329C18.7651 2.34301 18.5021 2.24926 18.2334 2.26263C18.0623 2.27174 17.8963 2.32416 17.7509 2.41498C17.6056 2.50579 17.4856 2.63203 17.4024 2.78186L17.4016 2.78157L14.5724 2.25586L13.4456 6.10489C11.8789 6.14637 10.4575 6.57219 9.39112 7.25029C9.10048 6.99738 8.72806 6.85834 8.3428 6.85889C7.91711 6.85942 7.50901 7.02875 7.20801 7.32975C6.90701 7.63076 6.73767 8.03885 6.73715 8.46454C6.73715 9.01198 7.01906 9.51709 7.47564 9.8117C7.4471 9.97287 7.43246 10.1362 7.4319 10.2999C7.4319 12.6172 10.2413 14.5028 13.6948 14.5028C17.1482 14.5028 19.957 12.6172 19.957 10.2996C19.957 10.1393 19.9424 9.98129 19.9161 9.82552C20.1479 9.68185 20.3393 9.4815 20.4722 9.24339C20.6051 9.00527 20.6754 8.73723 20.6761 8.46454ZM10.7182 9.55716C10.7183 9.42759 10.7438 9.2993 10.7935 9.17961C10.8431 9.05991 10.9158 8.95116 11.0074 8.85957C11.0991 8.76797 11.2079 8.69533 11.3276 8.64578C11.4473 8.59623 11.5756 8.57074 11.7052 8.57078C11.8348 8.57082 11.9631 8.59637 12.0828 8.64599C12.2024 8.69561 12.3112 8.76832 12.4028 8.85997C12.4944 8.95161 12.567 9.0604 12.6166 9.18013C12.6661 9.29985 12.6916 9.42816 12.6916 9.55773C12.6915 9.81941 12.5875 10.0703 12.4024 10.2553C12.2173 10.4403 11.9663 10.5442 11.7046 10.5441C11.4429 10.544 11.192 10.44 11.007 10.2549C10.8221 10.0698 10.7182 9.81885 10.7182 9.55716ZM16.0205 12.2261C15.9912 12.2566 15.2832 12.977 13.6832 12.977C12.0747 12.977 11.4313 12.2467 11.4051 12.2156C11.3644 12.1647 11.345 12.0999 11.351 12.035C11.3571 11.9701 11.388 11.91 11.4373 11.8674C11.4867 11.8247 11.5506 11.8029 11.6157 11.8063C11.6809 11.8098 11.7421 11.8384 11.7866 11.8861C11.8013 11.9019 12.338 12.4727 13.6829 12.4727C15.0515 12.4727 15.6514 11.8815 15.6576 11.8759C15.7051 11.8326 15.7672 11.8089 15.8314 11.8098C15.8956 11.8106 15.9571 11.8359 16.0034 11.8805C16.0496 11.9251 16.0771 11.9856 16.0803 12.0497C16.0835 12.1139 16.0621 12.1771 16.0205 12.2261ZM15.8244 10.544C15.6949 10.544 15.5666 10.5186 15.4469 10.469C15.3271 10.4195 15.2184 10.3469 15.1267 10.2553C15.0351 10.1638 14.9624 10.055 14.9127 9.93537C14.8631 9.8157 14.8375 9.68742 14.8375 9.55787C14.8374 9.42832 14.8629 9.30002 14.9124 9.18031C14.9619 9.0606 15.0345 8.95181 15.1261 8.86017C15.2177 8.76852 15.3264 8.69581 15.4461 8.64618C15.5657 8.59655 15.694 8.57098 15.8236 8.57092C16.0852 8.57081 16.3362 8.67464 16.5213 8.85957C16.7064 9.0445 16.8104 9.29538 16.8105 9.55702C16.8106 9.81867 16.7068 10.0696 16.5219 10.2547C16.3369 10.4398 16.0861 10.5439 15.8244 10.544Z" fill="black"/>
    </g>
    <defs>
        <clipPath id="clip0_119_390">
            <rect x="0.706604" y="0.4375" width="25.6886" height="16" rx="8" fill="white"/>
        </clipPath>
    </defs>
</svg>
