<svg width="27" height="17" viewBox="0 0 27 17" fill="none" xmlns="http://www.w3.org/2000/svg">
    <rect x="0.568848" y="0.4375" width="25.6886" height="16" fill="#848895"/>
    <path d="M20.4806 4.68901C19.9601 4.92003 19.4078 5.07139 18.8423 5.13803C19.4382 4.7818 19.884 4.2208 20.0965 3.55984C19.5366 3.89229 18.924 4.12652 18.2852 4.25242C18.0184 3.96766 17.6959 3.74076 17.3378 3.5858C16.9796 3.43083 16.5935 3.35111 16.2033 3.35156C14.6282 3.35156 13.3511 4.62862 13.3511 6.20398C13.3511 6.42722 13.3762 6.64481 13.4251 6.85394C11.0544 6.73484 8.95241 5.59946 7.54554 3.87367C7.29179 4.309 7.15853 4.80404 7.15946 5.30793C7.15946 6.2974 7.66294 7.17059 8.42833 7.68198C7.97536 7.6676 7.53239 7.5452 7.13631 7.32497L7.13603 7.36109C7.13603 8.74285 8.11929 9.89544 9.42429 10.1579C9.00409 10.2717 8.56351 10.2883 8.13594 10.2065C8.49916 11.3396 9.55241 12.1645 10.8004 12.1874C9.7901 12.9804 8.54235 13.4106 7.25795 13.4085C7.02794 13.4085 6.80075 13.395 6.57751 13.3685C7.88168 14.2067 9.39966 14.6516 10.95 14.65C16.1968 14.65 19.0655 10.3038 19.0655 6.53446C19.0655 6.41085 19.063 6.28752 19.0576 6.16503C19.6162 5.7618 20.0981 5.26192 20.4806 4.68901Z" fill="black"/>
</svg>
