<svg width="26" height="17" viewBox="0 0 26 17" fill="none" xmlns="http://www.w3.org/2000/svg">
    <rect y="0.4375" width="25.6886" height="16" fill="#848895"/>
    <path d="M20.5333 5.30433C20.5333 5.171 20.3333 4.10433 19.8667 3.63766C19.2667 2.971 18.6 2.90433 18.2667 2.90433H18.2C16.1333 2.771 13.0667 2.771 13 2.771C13 2.771 9.86668 2.771 7.80001 2.90433H7.73334C7.40001 2.90433 6.73334 2.971 6.13334 3.63766C5.66668 4.171 5.46668 5.23766 5.46668 5.371C5.46668 5.43766 5.33334 6.63766 5.33334 7.90433V9.03766C5.33334 10.3043 5.46668 11.5043 5.46668 11.571C5.46668 11.7043 5.66668 12.771 6.13334 13.2377C6.66668 13.8377 7.33334 13.9043 7.73334 13.971H7.93334C9.13334 14.1043 12.8 14.1043 12.9333 14.1043C12.9333 14.1043 16.0667 14.1043 18.1333 13.971H18.2C18.5333 13.9043 19.2 13.8377 19.8 13.2377C20.2667 12.7043 20.4667 11.6377 20.4667 11.5043C20.4667 11.4377 20.6 10.2377 20.6 8.971V7.83766C20.6667 6.63766 20.5333 5.371 20.5333 5.30433ZM15.6 8.571L11.6 10.7043C11.5333 10.7043 11.5333 10.771 11.4667 10.771C11.4 10.771 11.3333 10.771 11.3333 10.7043C11.2667 10.6377 11.2 10.571 11.2 10.4377V6.10433C11.2 5.971 11.2667 5.90433 11.3333 5.83766C11.4 5.771 11.5333 5.771 11.6667 5.83766L15.6667 7.971C15.8 8.03766 15.8667 8.10433 15.8667 8.23766C15.8667 8.371 15.7333 8.50433 15.6 8.571Z" fill="black"/>
</svg>
